<?xml version="1.0" standalone="no"?>
<!DOCTYPE svg PUBLIC "-//W3C//DTD SVG 20010904//EN"
 "http://www.w3.org/TR/2001/REC-SVG-20010904/DTD/svg10.dtd">
<svg version="1.0" xmlns="http://www.w3.org/2000/svg"
 width="502.000000pt" height="395.000000pt" viewBox="0 0 502.000000 395.000000"
 preserveAspectRatio="xMidYMid meet">

<g transform="translate(0.000000,395.000000) scale(0.100000,-0.100000)"
 stroke="#faf2d1ff" fill="#d27463" stroke-width="50px">
<path d="M500 3596 c-9 -25 -490 -1236 -497 -1252 -4 -11 25 -29 34 -21 2 2
113 282 248 621 134 339 247 621 250 625 3 5 215 -119 471 -276 450 -274 483
-292 484 -253 0 12 -935 575 -957 576 -16 1 -27 -6 -33 -20z"/>
<path d="M3643 3282 c-326 -185 -593 -342 -593 -349 0 -6 5 -15 10 -18 6 -3
271 143 590 324 319 182 584 331 589 331 4 0 91 -229 192 -510 103 -286 189
-510 196 -510 6 0 15 4 18 10 4 6 -358 1032 -369 1046 -18 23 -84 -11 -633
-324z"/>
<path d="M1117 2359 c-464 -64 -809 -506 -757 -969 14 -120 34 -192 84 -295
142 -295 419 -483 742 -502 351 -21 661 150 839 462 l42 74 140 -247 141 -247
-10 -55 c-15 -83 -55 -159 -117 -221 -167 -167 -430 -169 -597 -5 -28 28 -56
59 -61 70 -8 15 -14 16 -32 7 -21 -12 -21 -13 -4 -42 48 -82 167 -165 280
-194 204 -53 435 51 535 241 l36 67 7 -34 c12 -58 65 -147 117 -195 177 -165
459 -147 607 40 34 43 37 54 17 62 -7 3 -40 -22 -77 -59 -80 -80 -148 -109
-259 -111 -159 -2 -293 90 -349 239 -41 109 -40 113 114 382 l139 242 39 -62
c227 -361 678 -510 1076 -357 159 61 330 200 419 339 55 86 100 192 123 288
18 75 20 110 17 233 -4 130 -8 155 -37 240 -80 237 -238 419 -456 525 -131 64
-241 89 -395 88 -244 -1 -451 -87 -618 -255 -83 -84 -126 -145 -177 -253 -68
-142 -80 -196 -80 -375 0 -146 10 -212 41 -295 5 -13 -27 -15 -281 -15 l-286
0 7 23 c41 128 55 297 35 423 -48 295 -244 552 -515 674 -136 62 -339 90 -489
69z m317 -75 c97 -21 257 -101 339 -168 367 -306 399 -861 69 -1209 -252 -264
-645 -332 -972 -167 -280 141 -451 418 -452 730 0 244 84 444 256 608 205 194
477 268 760 206z m2245 0 c74 -17 208 -77 278 -125 111 -76 209 -190 270 -314
61 -122 84 -223 84 -371 1 -316 -173 -595 -456 -734 -145 -71 -203 -84 -370
-84 -156 0 -220 13 -341 69 -135 62 -265 171 -343 288 -44 65 -97 180 -117
252 -22 80 -30 265 -15 351 83 473 541 776 1010 668z m-1153 -1388 c-66 -118
-124 -215 -128 -215 -6 -1 -248 415 -248 425 0 2 112 4 249 4 l248 0 -121
-214z"/>
</g>
</svg>
